<?xml version="1.0" encoding="UTF-8" standalone="no"?>
<!-- Created with Inkscape (http://www.inkscape.org/) -->

<svg
   xmlns:dc="http://purl.org/dc/elements/1.1/"
   xmlns:cc="http://creativecommons.org/ns#"
   xmlns:rdf="http://www.w3.org/1999/02/22-rdf-syntax-ns#"
   xmlns:svg="http://www.w3.org/2000/svg"
   xmlns="http://www.w3.org/2000/svg"
   xmlns:sodipodi="http://sodipodi.sourceforge.net/DTD/sodipodi-0.dtd"
   xmlns:inkscape="http://www.inkscape.org/namespaces/inkscape"
   version="1.1"
   id="svg2"
   width="195.09164"
   height="204.69087"
   viewBox="0 0 195.09165 204.69087"
   sodipodi:docname="no-plant.svg"
   inkscape:version="0.92.5 (2060ec1f9f, 2020-04-08)">
  <metadata
     id="metadata8">
    <rdf:RDF>
      <cc:Work
         rdf:about="">
        <dc:format>image/svg+xml</dc:format>
        <dc:type
           rdf:resource="http://purl.org/dc/dcmitype/StillImage" />
        <dc:title></dc:title>
      </cc:Work>
    </rdf:RDF>
  </metadata>
  <defs
     id="defs6" />
  <sodipodi:namedview
     pagecolor="#ffffff"
     bordercolor="#666666"
     borderopacity="1"
     objecttolerance="10"
     gridtolerance="10"
     guidetolerance="10"
     inkscape:pageopacity="0"
     inkscape:pageshadow="2"
     inkscape:window-width="2488"
     inkscape:window-height="1403"
     id="namedview4"
     showgrid="false"
     inkscape:zoom="3.5400001"
     inkscape:cx="95.907256"
     inkscape:cy="105.42248"
     inkscape:window-x="72"
     inkscape:window-y="0"
     inkscape:window-maximized="1"
     inkscape:current-layer="svg2"
     fit-margin-top="0"
     fit-margin-left="0"
     fit-margin-right="0"
     fit-margin-bottom="0" />
  <path
     style="fill:#000000;stroke-width:1.33333325"
     d="m 77.911297,193.02419 c -4.24779,-18.19157 -5.90536,-35.42856 -5.03256,-52.33333 0.77741,-15.05728 0.71386,-15.52537 -3.53011,-26 -2.37698,-5.86667 -6.36432,-13.66667 -8.86075,-17.333325 -3.82731,-5.6214 -4.03219,-6.25893 -1.30676,-4.06612 4.77202,3.83943 9.0067,8.683845 13.23688,15.142805 l 3.76151,5.74337 2.24442,-7.72053 c 1.23443,-4.24628 3.97419,-11.535435 6.08835,-16.198125 3.50509,-7.73031 3.67963,-8.79533 1.98005,-12.081962 -2.03968,-3.94431 -5.3601,-16.416634 -6.6075,-24.819434 -0.69806,-4.70232 -0.42669,-4.37142 2.29359,2.79671 3.80402,10.02388 7.91007,17.203286 9.8389,17.203286 0.79999,0 4.21511,-3.749996 7.58918,-8.333336 3.374053,-4.58333 6.398633,-8.33333 6.721283,-8.33333 0.32265,0 -1.68997,3.75 -4.47249,8.33333 -10.828963,17.837356 -17.515303,37.378231 -20.115433,58.787591 -1.70168,14.01158 -0.58812,27.54574 2.26641,27.54574 4.09361,0 21.463923,-9.22867 29.073723,-15.44656 l 8,-6.53674 -6.5113,7.5699 c -7.12394,8.28214 -20.360953,19.47037 -27.109483,22.91357 -2.3581,1.20313 -4.05505,2.93279 -3.77101,3.84368 4.93443,15.82393 7.26417,21.98363 11.59486,30.65615 l 5.160033,10.33333 h -9.903793 -9.90379 z m 47.732653,-47.80461 c 8.0528,-8.80711 16.10271,-24.20385 16.10271,-30.79904 0,-3.48407 -0.6392,-4.50597 -3.22426,-5.15479 -7.70401,-1.93357 -24.85539,4.26016 -35.77574,12.91939 l -5.000003,3.96472 0.001,-6.39617 c 7.1e-4,-4.31483 1.28239,-9.10467 3.938763,-14.71971 10.4803,-22.153445 36.92004,-34.689055 78.39934,-37.170711 l 15.00588,-0.89778 -0.86008,4.529356 c -4.38142,23.07336 -16.07868,49.234225 -27.79538,62.164265 -10.3666,11.44015 -23.19896,17.83211 -37.66279,18.76035 l -10.31823,0.66217 z M 40.60902,104.59081 C 19.23848,100.38903 3.81706,75.435213 0.88838,40.317749 L 0,29.665299 7.87333,30.643944 c 10.32571,1.283472 27.33164,6.657257 36.65166,11.581736 15.237337,8.051049 25.703137,22.211649 27.475337,37.175123 l 0.81907,6.915742 -6.40393,-4.88823 c -9.06016,-6.915772 -15.83983,-10.09824 -23.426657,-10.99679 -6.54211,-0.77482 -6.57544,-0.75922 -6.56804,3.07362 0.0132,6.844708 2.66135,13.68693 8.72526,22.54418 3.263677,4.767095 5.933967,8.961615 5.933967,9.321165 0,0.86556 -3.38515,0.61349 -10.470977,-0.77968 z m 76.53703,-46.664751 c 5.04236,-7.49293 8.05609,-15.923057 6.83241,-19.11191 -1.41332,-3.683074 -12.47376,-0.284846 -21.80951,6.700795 -2.334403,1.74676 -4.661083,3.175925 -5.170413,3.175925 -1.57925,0 0.68424,-10.647674 3.391643,-15.954632 3.31319,-6.494383 9.35381,-11.543109 19.35648,-16.178069 7.80549,-3.616851 25.09634,-7.8672973 32.0042,-7.8672973 3.2504,0 3.4003,0.289235 2.59127,5.0000003 -2.94721,17.160833 -8.26377,30.754889 -15.42655,39.444578 -4.58036,5.55677 -16.00475,11.55542 -22.00721,11.55542 h -4.31471 z M 66.431567,47.13367 c -8.03068,-6.316933 -9.61432,-20.537355 -4.04488,-36.321371 1.78775,-5.0665483 3.87987,-9.84132928 4.64917,-10.61062628 2.01352,-2.01352002 15.321,11.51795328 19.42404,19.75099028 3.67313,7.370405 4.35155,17.982316 1.48039,23.156645 -1.69756,3.059296 -1.73195,3.040594 -4.11123,-2.23571 -1.31964,-2.926446 -4.03521,-6.888066 -6.0346,-8.803599 -3.3694,-3.228089 -3.77222,-3.317751 -5.50819,-1.226032 -1.17455,1.415246 -1.87294,5.41201 -1.87294,10.718497 0,4.653957 -0.0691,8.461745 -0.15352,8.461745 -0.0844,0 -1.80715,-1.30074 -3.82824,-2.890539 z"
     id="path3715"
     inkscape:connector-curvature="0" />
</svg>
