<?xml version="1.0" encoding="UTF-8" standalone="no"?>
<svg
   xmlns:dc="http://purl.org/dc/elements/1.1/"
   xmlns:cc="http://creativecommons.org/ns#"
   xmlns:rdf="http://www.w3.org/1999/02/22-rdf-syntax-ns#"
   xmlns:svg="http://www.w3.org/2000/svg"
   xmlns="http://www.w3.org/2000/svg"
   id="svg8"
   version="1.1"
   viewBox="0 0 79.358292 60.594719"
   height="60.594719mm"
   width="79.358292mm">
  <defs
     id="defs2" />
  <metadata
     id="metadata5">
    <rdf:RDF>
      <cc:Work
         rdf:about="">
        <dc:format>image/svg+xml</dc:format>
        <dc:type
           rdf:resource="http://purl.org/dc/dcmitype/StillImage" />
        <dc:title></dc:title>
      </cc:Work>
    </rdf:RDF>
  </metadata>
  <g
     transform="translate(-61.12537,-41.564971)"
     id="layer1">
    <path
       id="path21"
       d="m 113.43611,102.09062 c -0.57685,-0.17328 -1.31273,-0.69914 -1.61917,-1.15707 -0.48694,-0.72767 -0.58784,-1.220639 -0.58784,-2.871889 v -1.46244 l -0.63394,-0.22113 c -0.34866,-0.12161 -0.98876,-0.38653 -1.42244,-0.5887 l -0.78852,-0.36758 -1.10842,1.08505 c -1.34544,1.31707 -1.82287,1.57998 -2.86912,1.57998 -1.19524,0 -1.48645,-0.20322 -4.17571,-2.9141 -2.63349,-2.65465 -2.67155,-2.71219 -2.65987,-4.02 0.01,-1.06986 0.20488,-1.42908 1.50517,-2.76811 0.58894,-0.60648 1.0708,-1.14103 1.0708,-1.18787 0,-0.0469 -0.0856,-0.24485 -0.19019,-0.44001 -0.44704,-0.83409 -0.27559,-1.74404 0.42998,-2.28221 0.30238,-0.23063 0.44207,-0.27156 0.92684,-0.27156 0.83156,0 1.18371,0.24778 1.64953,1.16064 0.20142,0.39472 0.59871,1.09803 0.88285,1.56292 l 0.51663,0.84524 -1.70773,1.71396 -1.70772,1.71396 1.73554,1.73745 1.73555,1.73745 1.70651,-1.70464 1.70651,-1.70464 0.87711,0.52042 c 1.73438,1.02907 2.92229,1.52395 4.87889,2.03252 l 0.94588,0.24586 0.0149,2.39485 0.0149,2.39485 2.41833,0.0251 2.41833,0.0251 v -2.43396 -2.43396 l 0.72784,-0.16011 c 1.68143,-0.36986 4.04723,-1.31935 5.121,-2.05527 0.19512,-0.13373 0.48636,-0.31119 0.6472,-0.39436 l 0.29242,-0.15122 1.70163,1.69977 1.70163,1.69976 1.73555,-1.73745 1.73555,-1.73745 -1.70907,-1.71396 -1.70906,-1.71396 0.4243,-0.69246 c 0.99824,-1.62911 1.55892,-2.94729 2.05037,-4.82047 l 0.30305,-1.15509 2.41078,-0.0251 2.41078,-0.0251 v -2.44022 -2.44022 h -2.4418 -2.44181 l -0.0168,-0.25827 c -0.009,-0.14204 -0.0164,-0.33222 -0.016,-0.42262 3.5e-4,-0.0904 -0.0296,-0.16435 -0.0667,-0.16435 -0.0371,0 -0.0971,-0.15848 -0.13335,-0.35218 -0.22269,-1.18997 -1.10104,-3.24715 -2.05508,-4.81318 l -0.4291,-0.70437 1.70974,-1.71396 1.70974,-1.71396 -1.73527,-1.73718 -1.73528,-1.73718 -1.03737,1.03442 c -0.86463,0.86219 -1.05955,1.01461 -1.17062,0.91542 -0.11182,-0.0999 -0.11562,-0.0954 -0.0236,0.0276 0.0911,0.12181 2e-5,0.25536 -0.53864,0.78989 l -0.64827,0.64331 -0.90664,-0.54104 c -1.68049,-1.00284 -3.58167,-1.75724 -5.33469,-2.11685 l -0.54762,-0.11233 0.0251,-2.4101 0.0251,-2.41009 h -2.43586 -2.43586 l -0.019,2.38252 c -0.0104,1.31038 -0.0336,2.39718 -0.0516,2.41509 -0.0179,0.0179 -0.53766,0.17 -1.15498,0.33795 -1.44773,0.39388 -1.95675,0.40277 -2.42911,0.0424 -0.39594,-0.30206 -0.73558,-0.79743 -0.66864,-0.97523 0.0243,-0.0646 -0.002,-0.1174 -0.0595,-0.1174 -0.17379,0 -0.005,-0.8515 0.24295,-1.22632 0.12388,-0.18721 0.3519,-0.39284 0.50671,-0.45696 l 0.28148,-0.11659 0.0327,-1.70622 0.0328,-1.70622 0.32015,-0.59125 c 0.36637,-0.6766 0.82417,-1.07802 1.58749,-1.39197 0.52327,-0.21522 0.59455,-0.21939 3.79334,-0.22157 3.1072,-0.002 3.2853,0.007 3.79883,0.19935 0.68358,0.25576 1.35832,0.88023 1.69761,1.57112 0.2485,0.50602 0.26078,0.59814 0.29193,2.19059 l 0.0325,1.66235 0.62489,0.20777 c 0.34369,0.11427 0.98063,0.37126 1.41543,0.57108 l 0.79055,0.36331 1.09396,-1.08049 c 1.31167,-1.29552 1.81811,-1.57597 2.86597,-1.58712 1.17657,-0.0125 1.4369,0.16576 4.06566,2.78424 2.68602,2.67551 2.79244,2.83226 2.78638,4.1037 -0.005,1.09784 -0.23444,1.51553 -1.59555,2.90762 l -1.05969,1.08379 0.22056,0.42263 c 0.19279,0.36945 0.78494,1.82653 0.92247,2.26991 0.0426,0.13746 0.26086,0.16064 1.76844,0.18786 1.51358,0.0273 1.77048,0.0548 2.14243,0.22916 0.52651,0.24683 1.1571,0.88103 1.43337,1.44158 0.20656,0.41912 0.21015,0.48805 0.21015,4.04215 0,3.58891 -10e-4,3.61902 -0.21718,4.05667 -0.27759,0.56355 -0.83762,1.12303 -1.4042,1.40278 -0.40743,0.20119 -0.58821,0.22233 -2.15388,0.2519 l -1.70911,0.0323 -0.11228,0.3448 c -0.0618,0.18963 -0.3175,0.81785 -0.56834,1.39604 -0.25083,0.57818 -0.45607,1.08745 -0.45607,1.13169 0,0.0442 0.46235,0.55019 1.02745,1.12431 1.32198,1.3431 1.54623,1.75422 1.55143,2.84423 0.006,1.2619 -0.11553,1.44059 -2.7998,4.11582 -2.62014,2.61132 -2.87126,2.78248 -4.07106,2.77475 -0.56352,-0.004 -0.77648,-0.0537 -1.27772,-0.30048 -0.33528,-0.16505 -0.78981,-0.49391 -1.02698,-0.74303 -0.23402,-0.2458 -0.69725,-0.71269 -1.02941,-1.03753 l -0.60393,-0.59062 -0.79208,0.36402 c -0.43564,0.2002 -1.07328,0.45751 -1.41697,0.57178 l -0.62489,0.20777 -0.0335,1.66236 c -0.0313,1.55388 -0.0493,1.69606 -0.27588,2.178889 -0.28825,0.61431 -0.80167,1.14206 -1.44613,1.48648 l -0.46958,0.25096 -3.42792,0.0172 c -1.88536,0.009 -3.55471,-0.0209 -3.70967,-0.0674 z m 26.71901,-24.825899 c 0,-0.0195 -0.074,-0.0935 -0.16436,-0.16436 -0.14896,-0.11681 -0.15227,-0.11349 -0.0355,0.0355 0.12269,0.15644 0.19982,0.20619 0.19982,0.12889 z m -0.75133,-0.75133 c 0,-0.0195 -0.074,-0.0935 -0.16435,-0.16435 -0.14896,-0.11682 -0.15228,-0.1135 -0.0355,0.0355 0.12269,0.15644 0.19981,0.20619 0.19981,0.12889 z m -0.75133,-0.75132 c 0,-0.0195 -0.074,-0.0935 -0.16435,-0.16435 -0.14895,-0.11682 -0.15227,-0.1135 -0.0355,0.0355 0.1227,0.15644 0.19982,0.20619 0.19982,0.12889 z m -5.96364,-0.71587 c 0.0935,-0.10331 0.14886,-0.18783 0.12303,-0.18783 -0.0258,0 -0.12345,0.0845 -0.21694,0.18783 -0.0935,0.10331 -0.14886,0.18783 -0.12303,0.18783 0.0258,0 0.12345,-0.0845 0.21694,-0.18783 z m 5.21232,-0.0355 c 0,-0.0195 -0.074,-0.0935 -0.16435,-0.16435 -0.14896,-0.11682 -0.15228,-0.1135 -0.0355,0.0355 0.12269,0.15644 0.19981,0.20619 0.19981,0.12889 z m -4.58989,-0.59847 c 0.11682,-0.14896 0.1135,-0.15228 -0.0355,-0.0355 -0.0904,0.0709 -0.16435,0.14485 -0.16435,0.16435 0,0.0773 0.0771,0.0275 0.19981,-0.12889 z m 3.83857,-0.15286 c 0,-0.0195 -0.074,-0.0935 -0.16436,-0.16435 -0.14896,-0.11681 -0.15227,-0.11349 -0.0355,0.0355 0.12269,0.15644 0.19982,0.20619 0.19982,0.1289 z m -3.08724,-0.59847 c 0.11682,-0.14895 0.1135,-0.15227 -0.0355,-0.0355 -0.0904,0.0709 -0.16435,0.14485 -0.16435,0.16436 0,0.0773 0.0771,0.0275 0.19982,-0.1289 z m 2.33591,-0.15285 c 0,-0.0195 -0.074,-0.0935 -0.16435,-0.16435 -0.14896,-0.11682 -0.15228,-0.1135 -0.0355,0.0355 0.12269,0.15644 0.19981,0.20619 0.19981,0.12889 z m -2.06614,-2.06308 c 0,-0.0178 -0.0951,-0.11292 -0.21131,-0.21132 l -0.21132,-0.17891 0.17892,0.21132 c 0.16812,0.19857 0.24371,0.25406 0.24371,0.17891 z m -0.93916,-0.94222 c 0,-0.0195 -0.074,-0.0935 -0.16435,-0.16435 -0.14896,-0.11682 -0.15228,-0.1135 -0.0355,0.0355 0.12269,0.15644 0.19982,0.20619 0.19982,0.12889 z m -0.75133,-0.75133 c 0,-0.0195 -0.0739,-0.0935 -0.16435,-0.16435 -0.14896,-0.11682 -0.15228,-0.1135 -0.0355,0.0355 0.12269,0.15644 0.19981,0.20619 0.19981,0.1289 z m -0.75132,-0.75132 c 0,-0.0195 -0.074,-0.0935 -0.16435,-0.16435 -0.14896,-0.11682 -0.15228,-0.1135 -0.0355,0.0355 0.12268,0.15644 0.1998,0.20619 0.1998,0.12889 z m -5.25928,-5.25928 c 0,-0.0195 -0.0739,-0.0935 -0.16435,-0.16435 -0.14896,-0.11682 -0.15228,-0.1135 -0.0355,0.0355 0.12269,0.15644 0.19981,0.20619 0.19981,0.1289 z m -0.75132,-0.75132 c 0,-0.0195 -0.074,-0.0935 -0.16435,-0.16435 -0.14896,-0.11682 -0.15228,-0.1135 -0.0355,0.0355 0.12269,0.15644 0.19981,0.20619 0.19981,0.12889 z m -10.67536,25.91097 c -4.00943,-0.72747 -7.29896,-3.75238 -8.2864,-7.61983 -0.96811,-3.7917 0.13657,-7.62806 2.95419,-10.25941 2.79894,-2.6139 6.66733,-3.49531 10.27871,-2.34199 4.13355,1.32007 6.91512,4.90106 7.27998,9.37222 0.0779,0.95405 -0.0727,2.20565 -0.2969,2.46888 -0.12842,0.15076 -0.1334,0.17303 -0.0189,0.0848 0.14152,-0.10914 0.14747,-0.0841 0.0673,0.28336 -0.64286,2.9447 -2.73694,5.6542 -5.42585,7.02042 -0.78164,0.39714 -2.16185,0.84275 -3.05603,0.98663 -1.06705,0.17171 -2.5653,0.17384 -3.49602,0.005 z m 3.14192,-3.29731 c 2.63602,-0.54448 4.59295,-2.31734 5.47599,-4.9609 0.25076,-0.7507 0.34249,-2.42156 0.18142,-3.30468 -0.48377,-2.65246 -2.58336,-4.92883 -5.15317,-5.58705 -2.67355,-0.68478 -5.27775,0.0959 -7.15804,2.14581 -0.65833,0.71772 -1.04904,1.38127 -1.42707,2.42362 -0.29665,0.81794 -0.30429,0.87755 -0.30005,2.34195 0.004,1.47018 0.0111,1.52067 0.31837,2.33621 1.25604,3.33401 4.69809,5.29999 8.06255,4.60504 z m 7.4515,-3.67768 c 0.11682,-0.14895 0.1135,-0.15227 -0.0355,-0.0355 -0.0904,0.0709 -0.16435,0.14486 -0.16435,0.16436 0,0.0773 0.0771,0.0275 0.19981,-0.1289 z m 0.75133,-0.75132 c 0.11682,-0.14896 0.11349,-0.15228 -0.0355,-0.0355 -0.0904,0.0709 -0.16436,0.14485 -0.16436,0.16435 0,0.0773 0.0771,0.0275 0.19981,-0.12889 z m -17.01072,-0.80721 c 0,-0.0178 -0.0951,-0.11291 -0.21131,-0.21131 l -0.21131,-0.17891 0.17891,0.21132 c 0.16813,0.19857 0.24371,0.25406 0.24371,0.1789 z m -0.75132,-0.75132 c 0,-0.0178 -0.0951,-0.11291 -0.21131,-0.21131 l -0.21131,-0.17891 0.1789,0.21131 c 0.16814,0.19858 0.24372,0.25406 0.24372,0.17891 z m -0.75133,-0.75133 c 0,-0.0178 -0.0951,-0.11291 -0.21131,-0.21131 l -0.21131,-0.17891 0.17891,0.21131 c 0.16813,0.19858 0.24371,0.25407 0.24371,0.17891 z m -0.75132,-0.75132 c 0,-0.0178 -0.0951,-0.11291 -0.21131,-0.21132 l -0.21131,-0.1789 0.1789,0.21131 c 0.16813,0.19858 0.24372,0.25406 0.24372,0.17891 z m -26.35875,10.37722 c -0.97664,-0.33751 -1.77779,-1.20972 -1.99703,-2.17416 -0.0528,-0.23244 -0.0971,-1.06141 -0.0984,-1.84216 l -0.002,-1.41954 -0.63393,-0.21318 c -0.34867,-0.11724 -0.99022,-0.37731 -1.42567,-0.57792 l -0.79175,-0.36475 -1.09231,1.07886 c -1.3193,1.30305 -1.82226,1.5825 -2.86015,1.58914 -1.18459,0.008 -1.44237,-0.16891 -4.07074,-2.78699 -2.68891,-2.6784 -2.79436,-2.83388 -2.78312,-4.1037 0.0102,-1.15119 0.1774,-1.46073 1.53385,-2.83955 l 1.12076,-1.13924 -0.30531,-0.61677 c -0.1679,-0.33921 -0.44694,-0.98655 -0.62008,-1.43852 l -0.31479,-0.82176 -0.85161,-0.002 c -1.934,-0.004 -2.53338,-0.0548 -2.96472,-0.25046 -0.55326,-0.25094 -1.13312,-0.82379 -1.41632,-1.39917 l -0.2272,-0.46163 v -3.61582 c 0,-3.55409 0.004,-3.62302 0.21014,-4.04214 0.27628,-0.56056 0.90687,-1.19251 1.43338,-1.43644 0.36779,-0.1704 0.64279,-0.20028 2.11963,-0.23026 l 1.697,-0.0345 0.35956,-0.90846 c 0.19776,-0.49965 0.47731,-1.14473 0.62122,-1.43352 l 0.26165,-0.52507 -1.13115,-1.15831 c -1.3596,-1.39224 -1.51595,-1.68076 -1.52599,-2.81604 -0.0113,-1.26981 0.0942,-1.42529 2.78311,-4.10369 2.62294,-2.61268 2.87238,-2.78345 4.06566,-2.78345 1.03978,0 1.54031,0.27699 2.86523,1.58559 l 1.09232,1.07886 0.79174,-0.36378 c 0.43545,-0.20008 1.07294,-0.45653 1.41663,-0.5699 l 0.62489,-0.20612 0.0325,-1.66235 c 0.0314,-1.60487 0.0418,-1.68117 0.29973,-2.20654 0.33409,-0.68035 0.80426,-1.14877 1.47023,-1.46473 l 0.51654,-0.24506 h 3.52183 3.52184 l 0.49289,0.25977 c 0.67285,0.3546 1.10846,0.80175 1.4118,1.44918 0.24257,0.51769 0.25692,0.62811 0.28631,2.20187 l 0.031,1.65685 0.62647,0.2082 c 0.34456,0.11452 0.98267,0.37345 1.41803,0.57541 l 0.79155,0.3672 1.0398,-1.02066 c 0.5719,-0.56137 1.23318,-1.1324 1.46953,-1.26895 0.87398,-0.50495 2.03703,-0.51157 2.92119,-0.0166 0.22314,0.12491 1.44598,1.27523 2.71741,2.55626 2.11952,2.13552 2.32914,2.37599 2.5215,2.89264 0.16638,0.44684 0.20133,0.6996 0.16883,1.22091 -0.063,1.01 -0.28873,1.40359 -1.53573,2.67745 l -1.09514,1.11873 0.37814,0.87242 c 0.20798,0.47983 0.47135,1.13326 0.58526,1.45207 l 0.20711,0.57965 1.70404,0.0308 c 1.9551,0.0354 2.2318,0.11327 2.97403,0.83733 0.87372,0.85234 0.95722,1.33473 0.91893,5.30876 l -0.0289,2.9945 -0.2503,0.53396 c -0.32231,0.68758 -0.99878,1.33565 -1.64755,1.57839 -0.43138,0.1614 -0.73188,0.18858 -2.08451,0.18858 h -1.58046 l -0.2625,0.72785 c -0.14438,0.40032 -0.40605,1.0375 -0.58149,1.41596 -0.17545,0.37847 -0.30599,0.7254 -0.29009,0.77096 0.0159,0.0456 0.50764,0.57267 1.09277,1.17135 1.28482,1.31455 1.46625,1.65071 1.46954,2.72277 0.004,1.31339 -0.0307,1.36555 -2.69967,4.0544 -2.69978,2.71988 -2.95126,2.89479 -4.15387,2.88919 -1.01582,-0.005 -1.4881,-0.26885 -2.82471,-1.57969 l -1.11292,-1.09146 -1.03648,0.45993 c -0.57007,0.25296 -1.2161,0.51339 -1.43563,0.57872 l -0.39914,0.11879 -7.1e-4,1.51127 c -2.9e-4,0.83119 -0.0418,1.65976 -0.0922,1.84125 -0.26759,0.9632 -1.187,1.89092 -2.12173,2.14093 -0.28515,0.0763 -1.42417,0.11079 -3.58618,0.10869 -2.79189,-0.003 -3.22592,-0.023 -3.65329,-0.17066 z m 6.14497,-5.56887 0.0251,-2.40859 0.67932,-0.16159 c 1.84391,-0.4386 3.3968,-1.0681 5.08062,-2.05955 l 0.92642,-0.54548 1.70416,1.70229 1.70416,1.70229 1.73543,-1.73734 1.73544,-1.73734 -1.38753,-1.38985 c -0.76314,-0.76442 -1.35434,-1.4263 -1.31376,-1.47086 0.0406,-0.0446 0.0276,-0.0548 -0.0288,-0.0227 -0.0564,0.0321 -0.23365,-0.0773 -0.39392,-0.24321 l -0.29141,-0.30157 0.42181,-0.65741 c 0.63812,-0.99451 1.02528,-1.77663 1.55194,-3.13509 0.0857,-0.22096 0.0893,-0.22153 0.29565,-0.047 l 0.20892,0.17675 -0.17592,-0.20802 c -0.10784,-0.12751 -0.15721,-0.29108 -0.12756,-0.42262 0.10712,-0.47523 0.45919,-1.83004 0.54998,-2.11639 l 0.0968,-0.30523 h 2.38756 2.38757 v -2.4418 -2.44181 h -2.38757 -2.38756 l -0.0969,-0.30523 c -0.0533,-0.16787 -0.18389,-0.65245 -0.29021,-1.07683 -0.39007,-1.55689 -1.03206,-3.05859 -1.92309,-4.49834 l -0.5165,-0.83457 1.71032,-1.71395 1.71033,-1.71395 -1.68854,-1.69049 c -0.92869,-0.92977 -1.71853,-1.6905 -1.75518,-1.6905 -0.0367,0 -0.74045,0.66563 -1.56399,1.47918 -0.82354,0.81354 -1.58478,1.55821 -1.69165,1.65481 -0.19157,0.17318 -0.20681,0.16818 -1.08772,-0.35748 -1.62802,-0.97147 -3.10173,-1.57608 -4.92598,-2.02093 -0.43324,-0.10564 -0.80232,-0.19208 -0.82018,-0.19208 -0.0178,0 -0.0437,-1.08825 -0.0575,-2.41833 l -0.0251,-2.41833 -2.41832,-0.0251 -2.41833,-0.0251 v 2.43396 2.43397 l -0.72785,0.1601 c -1.76672,0.38862 -3.42317,1.05601 -5.09222,2.05168 -0.48922,0.29184 -0.9123,0.53062 -0.94016,0.53062 -0.0279,0 -0.78935,-0.73958 -1.69218,-1.64352 -0.90283,-0.90394 -1.68467,-1.64352 -1.73741,-1.64352 -0.0528,0 -0.85574,0.76072 -1.78444,1.69049 l -1.68854,1.69049 1.70905,1.71395 1.70906,1.71395 -0.41849,0.68293 c -0.98405,1.60583 -1.57477,2.99107 -2.05164,4.81113 l -0.30759,1.17395 -2.41079,0.0251 -2.41078,0.0251 v 2.44022 2.44022 l 2.41833,1.9e-4 2.41833,1.9e-4 0.23004,0.96245 c 0.12653,0.52935 0.23862,1.00471 0.2491,1.05637 0.13571,0.66889 1.07236,2.69233 1.83085,3.95515 l 0.45768,0.76201 -1.70511,1.71039 -1.70511,1.71039 1.73144,1.73144 1.73145,1.73145 1.68904,-1.69159 c 0.92898,-0.93037 1.7114,-1.69159 1.73871,-1.6916 0.0273,-1e-5 0.44994,0.23901 0.93916,0.53115 1.67942,1.00288 3.52417,1.73481 5.28005,2.09494 l 0.54002,0.11076 v 2.43673 2.43674 l 2.41833,-0.0251 2.41832,-0.0251 0.0251,-2.4086 z m -4.0946,-7.51393 c -0.71765,-0.10276 -2.23386,-0.57681 -2.8802,-0.90051 -0.97933,-0.49047 -2.09457,-1.29811 -2.87094,-2.07908 -3.99283,-4.01649 -4.0544,-10.44802 -0.13932,-14.55391 2.70794,-2.83993 6.9188,-3.91576 10.65408,-2.72202 3.65762,1.16894 6.38279,4.20464 7.11107,7.92141 0.21903,1.11777 0.21912,2.91653 1.9e-4,4.037 -0.59917,3.06696 -2.75169,5.89774 -5.55138,7.30064 -1.88561,0.94486 -4.16999,1.30484 -6.32354,0.99647 z m 3.07143,-3.36279 c 1.51904,-0.31344 2.75379,-1.02136 3.82172,-2.19111 0.71889,-0.78742 1.12023,-1.46258 1.47651,-2.48389 0.23907,-0.6853 0.29415,-1.00771 0.32956,-1.92909 0.0488,-1.2709 -0.0577,-1.95514 -0.46384,-2.97906 -0.80171,-2.02121 -2.59966,-3.64217 -4.68236,-4.22142 -4.50058,-1.25172 -9.00671,2.13972 -9.01452,6.78458 -0.006,3.41849 2.31512,6.32308 5.60677,7.01694 1.07175,0.22591 1.84217,0.22672 2.92616,0.003 z m 8.46442,-6.70416 c 0,-0.0178 -0.0951,-0.11291 -0.21131,-0.21131 l -0.21131,-0.17891 0.17891,0.21131 c 0.16813,0.19858 0.24371,0.25406 0.24371,0.17891 z m -19.39359,-1.1885 c 0.41081,-0.41323 0.7258,-0.75133 0.69997,-0.75133 -0.0258,0 -0.38307,0.3381 -0.79388,0.75133 -0.41081,0.41322 -0.72579,0.75132 -0.69996,0.75132 0.0258,0 0.38307,-0.3381 0.79387,-0.75132 z m 18.64226,0.43717 c 0,-0.0178 -0.0951,-0.11291 -0.21131,-0.21131 l -0.21131,-0.17891 0.17891,0.21131 c 0.16813,0.19858 0.24371,0.25407 0.24371,0.17891 z m -0.75132,-0.75132 c 0,-0.0178 -0.0951,-0.11291 -0.21131,-0.21131 l -0.21131,-0.17891 0.1789,0.21131 c 0.16814,0.19858 0.24372,0.25406 0.24372,0.17891 z m -0.75133,-0.75133 c 0,-0.0178 -0.0951,-0.11291 -0.21131,-0.21131 l -0.21131,-0.17891 0.17891,0.21131 c 0.16813,0.19858 0.24371,0.25407 0.24371,0.17891 z m -1.58458,19.02685 c 0.11681,-0.14896 0.1135,-0.15228 -0.0355,-0.0355 -0.0904,0.0709 -0.16435,0.14485 -0.16435,0.16435 0,0.0773 0.0771,0.0275 0.1998,-0.1289 z m 0.46957,-0.46958 c 0.11682,-0.14896 0.1135,-0.15228 -0.0355,-0.0355 -0.0904,0.0709 -0.16435,0.14485 -0.16435,0.16435 0,0.0773 0.0771,0.0275 0.19981,-0.1289 z m -15.41414,0.035 c 0,-0.0195 -0.074,-0.0935 -0.16435,-0.16435 -0.14896,-0.11682 -0.15228,-0.1135 -0.0355,0.0355 0.12268,0.15644 0.19981,0.20619 0.19981,0.12889 z m 16.16547,-0.7863 c 0.11682,-0.14896 0.1135,-0.15228 -0.0355,-0.0355 -0.0904,0.0709 -0.16435,0.14485 -0.16435,0.16435 0,0.0773 0.0771,0.0275 0.19981,-0.12889 z m 0.75133,-0.75133 c 0.11681,-0.14895 0.11349,-0.15228 -0.0355,-0.0355 -0.0904,0.0709 -0.16436,0.14485 -0.16436,0.16436 0,0.0773 0.0771,0.0275 0.19981,-0.1289 z m 0.75132,-0.75132 c 0.11682,-0.14896 0.1135,-0.15228 -0.0355,-0.0355 -0.0904,0.0709 -0.16435,0.14485 -0.16435,0.16435 0,0.0773 0.0771,0.0275 0.19981,-0.1289 z m 5.25928,-5.25928 c 0.11682,-0.14896 0.11349,-0.15228 -0.0355,-0.0355 -0.0904,0.0709 -0.16436,0.14485 -0.16436,0.16435 0,0.0773 0.0771,0.0276 0.19982,-0.12889 z m -30.44065,0.035 c 0,-0.0195 -0.074,-0.0935 -0.16436,-0.16435 -0.14895,-0.11682 -0.15228,-0.1135 -0.0355,0.0355 0.12269,0.15644 0.19982,0.20619 0.19982,0.1289 z m 31.19197,-0.7863 c 0.11682,-0.14896 0.1135,-0.15228 -0.0355,-0.0355 -0.0904,0.0709 -0.16435,0.14485 -0.16435,0.16435 0,0.0773 0.0771,0.0276 0.19981,-0.12889 z m 0.75133,-0.75132 c 0.11682,-0.14896 0.11349,-0.15228 -0.0355,-0.0355 -0.0904,0.0709 -0.16436,0.14485 -0.16436,0.16435 0,0.0773 0.0771,0.0275 0.19982,-0.12889 z m 1.58458,-0.0589 c 0,-0.0195 -0.074,-0.0935 -0.16435,-0.16435 -0.14896,-0.11682 -0.15227,-0.1135 -0.0355,0.0355 0.12269,0.15644 0.19981,0.20618 0.19981,0.12889 z m -0.60454,-0.92684 c 0.21797,-0.24092 0.22561,-0.2609 0.0364,-0.0952 -0.22827,0.19987 -0.24786,0.20204 -0.41949,0.0466 -0.17521,-0.15868 -0.17571,-0.15781 -0.0186,0.0324 0.0888,0.1075 0.13316,0.22372 0.0986,0.25827 -0.0345,0.0345 -0.0426,0.0628 -0.0178,0.0628 0.0248,0 0.16916,-0.1372 0.32088,-0.30489 z M 68.3566,70.913961 c 0.4108,-0.41322 0.72579,-0.75132 0.69996,-0.75132 -0.0258,0 -0.38307,0.3381 -0.79388,0.75132 -0.4108,0.41323 -0.72578,0.75133 -0.69996,0.75133 0.0258,0 0.38308,-0.3381 0.79388,-0.75133 z m 32.16611,0.43718 c 0,-0.0178 -0.0951,-0.11291 -0.21131,-0.21131 l -0.21131,-0.17891 0.17891,0.21131 c 0.16813,0.19858 0.24371,0.25407 0.24371,0.17891 z m 1.13897,-0.22587 c 0.11682,-0.14895 0.1135,-0.15227 -0.0355,-0.0355 -0.0904,0.0709 -0.16435,0.14485 -0.16435,0.16436 0,0.0773 0.0771,0.0275 0.19981,-0.1289 z M 64.4591,70.408931 c 0,-0.0195 -0.074,-0.0935 -0.16435,-0.16435 -0.14896,-0.11682 -0.15228,-0.1135 -0.0355,0.0355 0.12269,0.15644 0.19981,0.20619 0.19981,0.12889 z m 38.12975,-0.19933 c 0.12132,-0.12914 0.19945,-0.23479 0.17362,-0.23479 -0.0258,0 -0.14622,0.10565 -0.26753,0.23479 -0.12132,0.12913 -0.19944,0.23479 -0.17362,0.23479 0.0258,0 0.14622,-0.10566 0.26753,-0.23479 z m 0.57548,-0.58698 c 0.11682,-0.14895 0.1135,-0.15227 -0.0355,-0.0355 -0.0904,0.0709 -0.16435,0.14485 -0.16435,0.16436 0,0.0773 0.0771,0.0275 0.19981,-0.1289 z m 0.75132,-0.75132 c 0.11682,-0.14896 0.1135,-0.15228 -0.0355,-0.0355 -0.0904,0.0709 -0.16435,0.14485 -0.16435,0.16435 0,0.0773 0.0771,0.0275 0.19981,-0.12889 z m 0.75133,-0.75133 c 0.11682,-0.14895 0.1135,-0.15228 -0.0355,-0.0355 -0.0904,0.0709 -0.16435,0.14485 -0.16435,0.16436 0,0.0773 0.0771,0.0275 0.1998,-0.1289 z m 0.75132,-0.75132 c 0.11682,-0.14896 0.1135,-0.15228 -0.0355,-0.0355 -0.0904,0.0709 -0.16435,0.14485 -0.16435,0.16435 0,0.0773 0.0771,0.0275 0.19981,-0.12889 z m 0.75133,-0.75133 c 0.11682,-0.14895 0.1135,-0.15228 -0.0355,-0.0355 -0.0904,0.0709 -0.16435,0.14485 -0.16435,0.16436 0,0.0773 0.0771,0.0275 0.19981,-0.1289 z m 0.75132,-0.75132 c 0.11682,-0.14896 0.1135,-0.15228 -0.0355,-0.0355 -0.0904,0.0709 -0.16435,0.14485 -0.16435,0.16435 0,0.0773 0.0771,0.0275 0.19981,-0.1289 z m 0.75133,-0.75133 c 0.11682,-0.14895 0.1135,-0.15228 -0.0355,-0.0355 -0.0904,0.0709 -0.16435,0.14485 -0.16435,0.16435 0,0.0773 0.0771,0.0276 0.19981,-0.12889 z"
       style="fill:#ffffff;stroke-width:0.09391566" />
  </g>
</svg>
