<?xml version="1.0" encoding="UTF-8" standalone="no"?>
<!-- Created with Inkscape (http://www.inkscape.org/) -->

<svg
   xmlns:dc="http://purl.org/dc/elements/1.1/"
   xmlns:cc="http://creativecommons.org/ns#"
   xmlns:rdf="http://www.w3.org/1999/02/22-rdf-syntax-ns#"
   xmlns:svg="http://www.w3.org/2000/svg"
   xmlns="http://www.w3.org/2000/svg"
   xmlns:sodipodi="http://sodipodi.sourceforge.net/DTD/sodipodi-0.dtd"
   xmlns:inkscape="http://www.inkscape.org/namespaces/inkscape"
   width="58.855968mm"
   height="67.61248mm"
   viewBox="0 0 58.855969 67.61248"
   version="1.1"
   id="svg8"
   inkscape:version="0.92.5 (2060ec1f9f, 2020-04-08)"
   sodipodi:docname="traveller.svg">
  <defs
     id="defs2" />
  <sodipodi:namedview
     id="base"
     pagecolor="#ffffff"
     bordercolor="#666666"
     borderopacity="1.0"
     inkscape:pageopacity="0.0"
     inkscape:pageshadow="2"
     inkscape:zoom="1.979899"
     inkscape:cx="116.5793"
     inkscape:cy="200.38507"
     inkscape:document-units="mm"
     inkscape:current-layer="layer1"
     showgrid="false"
     fit-margin-top="0"
     fit-margin-left="0"
     fit-margin-right="0"
     fit-margin-bottom="0"
     inkscape:window-width="2560"
     inkscape:window-height="1403"
     inkscape:window-x="0"
     inkscape:window-y="0"
     inkscape:window-maximized="1" />
  <metadata
     id="metadata5">
    <rdf:RDF>
      <cc:Work
         rdf:about="">
        <dc:format>image/svg+xml</dc:format>
        <dc:type
           rdf:resource="http://purl.org/dc/dcmitype/StillImage" />
        <dc:title></dc:title>
      </cc:Work>
    </rdf:RDF>
  </metadata>
  <g
     inkscape:label="Layer 1"
     inkscape:groupmode="layer"
     id="layer1"
     transform="translate(-68.580518,-33.926012)">
    <path
       style="fill:#ffffff;stroke-width:0.26458332"
       d="m 79.972071,101.16253 c -0.461959,-0.20094 -1.057272,-0.69695 -1.322917,-1.10224 C 78.20067,99.376048 78.156712,98.284468 78.033872,84.781394 77.933004,73.693668 77.82512,70.213921 77.579695,70.132178 c -0.236876,-0.07889 -0.34169,0.660937 -0.396875,2.80135 l -0.07499,2.908559 -1.455208,-0.688366 c -2.136536,-1.010661 -4.556611,-3.54375 -5.713956,-5.98079 -1.789756,-3.768714 -1.808062,-6.958028 -0.07007,-12.206633 1.405009,-4.243012 3.862775,-7.760839 6.503353,-9.308321 1.110588,-0.650847 1.317783,-0.68121 3.617624,-0.530139 3.540693,0.232579 4.408039,0.672003 1.368976,0.693564 -2.838969,0.02014 -4.061631,0.51252 -5.708073,2.298698 -3.490572,3.786824 -3.743155,9.539674 -0.622453,14.177018 l 0.922086,1.370214 -0.441351,1.155663 c -0.242743,0.635613 -0.398976,1.193638 -0.347183,1.240057 0.442823,0.396867 8.567889,3.554108 8.729777,3.392217 0.404295,-0.404294 4.657515,-10.786109 4.493827,-10.969119 -0.18239,-0.203922 -8.228846,-3.652144 -8.522308,-3.652144 -0.101226,0 -0.374604,0.47625 -0.607508,1.058333 -0.232903,0.582083 -0.497826,1.058333 -0.588718,1.058333 -0.09089,0 -0.116862,-0.760027 -0.05771,-1.688948 0.08189,-1.286011 0.283336,-1.954589 0.844393,-2.802402 0.744552,-1.125095 0.772802,-1.676598 0.05538,-1.081192 -0.813089,0.674803 -1.47484,2.536399 -1.47484,4.14892 0,2.309711 0.874366,3.878612 3.516564,6.309868 1.912282,1.759614 2.145519,2.076553 2.145519,2.915496 0,1.287942 -0.846927,2.108108 -2.176897,2.108108 -2.120635,0 -6.267803,-4.268468 -7.483862,-7.702754 -1.14575,-3.235725 -0.549619,-7.326924 1.449526,-9.947978 1.378133,-1.806853 2.810019,-2.656986 4.706202,-2.794143 l 1.630627,-0.117949 -0.158555,2.217633 c -0.08721,1.219698 -0.392079,2.964702 -0.677496,3.877785 l -0.518939,1.660151 0.771344,0.398878 c 0.75041,0.388052 0.778948,0.378899 1.051499,-0.337235 0.483778,-1.271137 1.015351,-3.859532 1.199472,-5.840612 l 0.177233,-1.906958 4.261485,0.0026 c 3.905377,0.0024 4.372195,0.05414 5.586328,0.619532 2.726603,1.269715 4.705961,4.727318 5.682601,9.92655 0.50414,2.683817 0.822571,8.634092 0.63866,11.934348 -0.17501,3.140755 -0.21951,3.336303 -0.9181,4.034896 -0.944429,0.944427 -2.05542,0.968973 -2.95902,0.06537 l -0.6688,-0.668798 -0.12873,-6.80568 c -0.109633,-5.79591 -0.212456,-7.133775 -0.693002,-9.016996 -0.310349,-1.216225 -0.67845,-2.40685 -0.818002,-2.645834 -0.163444,-0.279893 -0.256947,7.285912 -0.262768,21.261317 -0.0088,21.174947 -0.02164,21.716536 -0.534795,22.558146 -1.119481,1.836109 -3.169018,2.398749 -4.790947,1.315229 -1.860564,-1.242942 -1.824195,-0.9319 -1.824653,-15.605146 l -4.11e-4,-13.163029 h -0.661459 -0.661458 l -9.79e-4,13.427604 c -9.26e-4,12.670721 -0.029,13.473538 -0.49793,14.242531 -0.539029,0.88395 -1.988255,1.7048 -2.98065,1.68827 -0.34181,-0.006 -0.999439,-0.17477 -1.461398,-0.37571 z m 34.915719,-19.510029 -6.93463,-10.326894 4.1565,-4.023264 c 2.28608,-2.212798 4.6431,-4.457689 5.23784,-4.988653 l 1.08133,-0.965385 0.81793,3.985694 c 0.44987,2.192131 0.88647,4.054226 0.97023,4.137991 0.0838,0.08376 0.45085,-0.128178 0.81574,-0.470977 l 0.66345,-0.623274 0.92301,0.89462 c 0.50766,0.49204 0.92301,1.016346 0.92301,1.165124 0,0.148778 -0.5892,0.869564 -1.30933,1.601743 l -1.30934,1.331237 1.47073,7.06701 1.47073,7.06701 -0.84993,2.061115 c -0.46745,1.133612 -0.92703,2.140468 -1.02128,2.237454 -0.0943,0.09699 -3.29195,-4.47076 -7.10599,-10.150551 z M 96.488878,86.926152 94.967844,84.21838 94.96758,80.419759 c -2.65e-4,-3.513089 0.03448,-3.784475 0.462701,-3.610464 2.006541,0.815388 3.603098,0.605544 4.845509,-0.636868 0.96366,-0.963657 1.30204,-2.304362 1.30819,-5.183213 l 0.005,-2.38125 9.58754,-9.898675 C 121.5245,48.02549 122.30619,47.375514 125.13387,47.10381 c 2.56711,-0.246667 2.96162,1.128432 1.31412,4.580465 -0.87307,1.829344 -1.92303,2.898269 -18.58238,18.917914 -5.34789,5.142537 -9.723431,9.459753 -9.723431,9.593815 0,0.134059 0.53791,1.479111 1.19536,2.988998 l 1.195371,2.745253 -1.234191,1.856041 c -0.6788,1.020823 -1.24648,1.85415 -1.26151,1.851835 -0.015,-0.0024 -0.711793,-1.222703 -1.54836,-2.711979 z M 125.57608,51.042163 c 0.5053,-2.012413 -1.65736,-3.121347 -3.48308,-1.785995 -0.47837,0.349891 -0.4217,0.371208 0.66214,0.249044 1.61432,-0.181957 2.24688,0.471062 2.03163,2.097336 -0.13809,1.043297 -0.11956,1.089635 0.24044,0.60125 0.21453,-0.291042 0.46152,-0.813778 0.54887,-1.161635 z m -23.23839,14.859185 c -0.64151,-0.389247 -0.69962,-0.604388 -0.97673,-3.616127 -0.24934,-2.709942 -0.91022,-5.913845 -1.771801,-8.589563 -0.18688,-0.580403 -0.14652,-0.612802 0.567911,-0.455886 0.67217,0.147633 0.9342,0.0013 2.07915,-1.161131 0.72053,-0.731528 1.44,-1.330052 1.59882,-1.330052 0.15883,0 0.69135,0.415356 1.18339,0.923013 l 0.89462,0.923012 -0.62327,0.663445 c -0.3428,0.364894 -0.55733,0.729388 -0.47673,0.809987 0.0806,0.0806 1.93666,0.521923 4.12457,0.980721 l 3.97803,0.834178 -0.6748,0.801949 c -0.37114,0.441071 -2.5977,2.788333 -4.94793,5.216136 l -4.27313,4.41419 z M 82.597934,62.19893 c -2.347141,-1.039323 -3.278186,-1.660758 -2.488176,-1.660758 0.516855,0 5.725377,2.322105 5.68302,2.53365 -0.08719,0.435457 -0.486587,0.326335 -3.194844,-0.872892 z m 0.251832,-1.327115 c -1.561096,-0.691949 -2.625664,-1.306789 -2.492761,-1.439693 0.280702,-0.280702 5.664393,1.917588 5.816928,2.375193 0.171628,0.514884 -0.44082,0.342527 -3.324167,-0.9355 z M 84.25158,46.545778 c -1.941008,-0.505161 -3.752348,-2.036925 -4.484507,-3.792336 -0.557409,-1.336432 -0.515682,-3.788301 0.08683,-5.101727 1.315752,-2.868255 4.496538,-4.348229 7.473156,-3.47715 4.429469,1.296241 6.113526,6.351915 3.331027,10.000015 -1.423832,1.866768 -4.28116,2.924333 -6.406501,2.371198 z"
       id="path53"
       inkscape:connector-curvature="0" />
  </g>
</svg>
